# xmcd
#
# Track frame offsets: 
#        150
#        15884
#        34497
#        53934
#        72088
#        86765
#        103240
#        126979
#        143503
#        169894
#        201678
#
# Disc length: 3003 seconds
#
# Revision: 0
# Processed by: cddbd v1.5.1PL0 Copyright (c) Steve Scherf et al.
# Submitted via: ExactAudioCopy v0.95a5
#
DISCID=a00bb90b
DTITLE=Slam Allen - Things Sho' Done Changed
DYEAR=1998
DGENRE=Blues
TTITLE0=Sittin' In My Window
TTITLE1=Ain't Nobody Got The Blues Like I Do
TTITLE2=Let Love Go
TTITLE3=Clear My Mind
TTITLE4=Just Give Me Your Love
TTITLE5=I Just Want You
TTITLE6=Things Sho' Done Changed
TTITLE7=Last One To Know
TTITLE8=Sometimes You Got To Have Rain
TTITLE9=Everybody Needs Love (Live Acoustic)
TTITLE10=Data Track
EXTD=
EXTT0=
EXTT1=
EXTT2=
EXTT3=
EXTT4=
EXTT5=
EXTT6=
EXTT7=
EXTT8=
EXTT9=
EXTT10=
PLAYORDER=
